<svg height="512" viewBox="0 0 40 58" width="512" xmlns="http://www.w3.org/2000/svg"><g id="033---Empty-Shelf-Cabinet" fill="none"><path id="Rectangle-path" d="m3.42 36h33.17v19.08h-33.17z" fill="#a56a43"/><path id="Rectangle-path" d="m3.25 18h33.5v18h-33.5z" fill="#805333"/><path id="Rectangle-path" d="m3.33 0h33.33v18h-33.33z" fill="#a56a43"/><path id="Shape" d="m5 0v54h-4v-52c0-1.1045695.8954305-2 2-2z" fill="#cb8252"/><path id="Shape" d="m39 2v52h-4v-54h2c1.1045695 0 2 .8954305 2 2z" fill="#cb8252"/><rect id="Rectangle-path" fill="#603e26" height="4" rx="1" width="40" y="54"/><path id="Shape" d="m35 4v13h-6v-13c0-.55228475.4477153-1 1-1h4c.5522847 0 1 .44771525 1 1z" fill="#f0c419"/><path id="Rectangle-path" d="m29 12h6v2h-6z" fill="#f29c1f"/><path id="Shape" d="m11 22v13h-6v-13c0-.5522847.44771525-1 1-1h4c.5522847 0 1 .4477153 1 1z" fill="#f0c419"/><path id="Rectangle-path" d="m5 30h6v2h-6z" fill="#f29c1f"/><path id="Shape" d="m17 22v13h-6v-13c0-.5522847.4477153-1 1-1h4c.5522847 0 1 .4477153 1 1z" fill="#ff5364"/><path id="Rectangle-path" d="m11 30h6v2h-6z" fill="#802f34"/><path id="Shape" d="m23 22v13h-6v-13c0-.5522847.4477153-1 1-1h4c.5522847 0 1 .4477153 1 1z" fill="#3b97d3"/><path id="Rectangle-path" d="m17 30h6v2h-6z" fill="#2980ba"/><path id="Shape" d="m31 42h-13c-.5522847 0-1 .4477153-1 1s.4477153 1 1 1h1v2h-1c-.5522847 0-1 .4477153-1 1s.4477153 1 1 1h13c1.6568542 0 3-1.3431458 3-3s-1.3431458-3-3-3z" fill="#3b97d3"/><path id="Shape" d="m31 46h-12v-2h12c.5522847 0 1 .4477153 1 1s-.4477153 1-1 1z" fill="#f5efca"/><path id="Shape" d="m31 48h-13c-.5522847 0-1 .4477153-1 1s.4477153 1 1 1h1v2h-1c-.5522847 0-1 .4477153-1 1s.4477153 1 1 1h13c1.6568542 0 3-1.3431458 3-3s-1.3431458-3-3-3z" fill="#cc66a1"/><path id="Shape" d="m31 52h-12v-2h12c.5522847 0 1 .4477153 1 1s-.4477153 1-1 1z" fill="#f5efca"/><path id="Shape" d="m24 15h-1v-2h1c.5522847 0 1-.4477153 1-1s-.4477153-1-1-1h-13c-1.65685425 0-3 1.3431458-3 3s1.34314575 3 3 3h13c.5522847 0 1-.4477153 1-1s-.4477153-1-1-1z" fill="#ff5364"/><path id="Shape" d="m10 14c0-.5522847.4477153-1 1-1h12v2h-12c-.5522847 0-1-.4477153-1-1z" fill="#f5efca"/><g fill="#cb8252"><path id="Shape" d="m35 19h-30c-.55228475 0-1-.4477153-1-1s.44771525-1 1-1h30c.5522847 0 1 .4477153 1 1s-.4477153 1-1 1z"/><path id="Shape" d="m35 19h-30c-.55228475 0-1-.4477153-1-1s.44771525-1 1-1h30c.5522847 0 1 .4477153 1 1s-.4477153 1-1 1z"/><path id="Shape" d="m35 37h-30c-.55228475 0-1-.4477153-1-1s.44771525-1 1-1h30c.5522847 0 1 .4477153 1 1s-.4477153 1-1 1z"/><path id="Shape" d="m35 37h-30c-.55228475 0-1-.4477153-1-1s.44771525-1 1-1h30c.5522847 0 1 .4477153 1 1s-.4477153 1-1 1z"/></g></g></svg>